<?xml version="1.0" encoding="utf-8"?>
<!-- Generator: Adobe Illustrator 24.3.0, SVG Export Plug-In . SVG Version: 6.00 Build 0)  -->
<svg version="1.1" id="Layer_1" xmlns="http://www.w3.org/2000/svg" xmlns:xlink="http://www.w3.org/1999/xlink" x="0px" y="0px"
	 viewBox="0 0 512 512" style="enable-background:new 0 0 512 512;" xml:space="preserve">
<style type="text/css">
	.st0{fill:#36A9E1;}
	.st1{fill:#95C11F;}
</style>
<g>
	<path class="st0" d="M250.4,126.9l-146.4,0c-10.2,0-18.4,8.3-18.4,18.5c0,10.2,8.2,18.4,18.4,18.4l109.5,0L250.4,126.9z"/>
	<path class="st0" d="M255.8,237.6l228.1,0c10.2,0,18.4-8.3,18.4-18.4c0-10.2-8.3-18.4-18.4-18.4l-191.2,0L255.8,237.6z"/>
	<path class="st0" d="M213.5,348.2l-109.5,0c-10.2,0-18.4,8.3-18.4,18.5c0,10.2,8.2,18.4,18.4,18.4l146.4,0L213.5,348.2z"/>
	<path class="st0" d="M292.8,311.3l191.2,0c10.2,0,18.4-8.3,18.4-18.4c0-10.2-8.3-18.4-18.4-18.4l-228,0L292.8,311.3z"/>
	<path class="st1" d="M474,145.3c0-10.2-8.3-18.4-18.5-18.4l-18.4,0l0,36.9l18.4,0C465.8,163.8,474,155.5,474,145.3z"/>
	<path class="st1" d="M474.1,366.6c0-10.2-8.3-18.4-18.5-18.4l-18.4,0l0,36.9l18.4,0C465.8,385.1,474.1,376.8,474.1,366.6z"/>
	<path class="st1" d="M9.7,292.9c0,10.2,8.3,18.4,18.5,18.4l18.4,0l0-36.9l-18.4,0C17.9,274.5,9.7,282.8,9.7,292.9z"/>
	<path class="st1" d="M9.7,219.2c0,10.2,8.3,18.4,18.5,18.4l18.4,0l0-36.9l-18.4,0C17.9,200.7,9.7,209,9.7,219.2z"/>
	<path class="st1" d="M437.2,348.2l-128.2,0c-6.2,0-14.9-3.6-19.3-8l-57.8-57.8c-4.4-4.4-13.1-8-19.3-8l-166,0l0,36.9l150.7,0
		c6.2,0,14.9,3.6,19.3,8l57.8,57.8c4.4,4.4,13.1,8,19.3,8l143.5,0L437.2,348.2z"/>
	<path class="st1" d="M197.3,200.7l-150.7,0l0,36.9l166,0c6.2,0,14.9-3.6,19.3-8l57.8-57.8c4.4-4.4,13.1-8,19.3-8l128.2,0l0-36.9
		l-143.5,0c-6.2,0-14.9,3.6-19.3,8l-57.8,57.8C212.2,197.1,203.5,200.7,197.3,200.7z"/>
</g>
</svg>
