<?xml version="1.0" encoding="utf-8"?>
<!-- Generator: Adobe Illustrator 24.3.0, SVG Export Plug-In . SVG Version: 6.00 Build 0)  -->
<svg version="1.1" id="Layer_1" xmlns="http://www.w3.org/2000/svg" xmlns:xlink="http://www.w3.org/1999/xlink" x="0px" y="0px"
	 viewBox="0 0 1172.5 258" style="enable-background:new 0 0 1172.5 258;" xml:space="preserve">
<style type="text/css">
	.st0{fill:#009FE3;}
	.st1{fill:#36A9E1;}
	.st2{fill:#95C11F;}
</style>
<g>
	<path class="st0" d="M340.6,149.4c0,10.3-4.7,17.4-14.1,21.2c-6.2,2.5-15.3,3.8-27.4,3.8h-32.5v-16h36.8c12.4,0,18.5-2.9,18.5-8.8
		V89.7h18.7V149.4z"/>
	<path class="st0" d="M474,175.1h-20.9l-15.4-21.9h-57.6l-15,21.9h-21.9L398.8,96c2.7-3.8,6.2-5.7,10.4-5.7c4.3,0,7.8,1.9,10.4,5.7
		L474,175.1z M426.4,137.1l-17.8-25.2l-17.4,25.2H426.4z"/>
	<path class="st0" d="M580,150.7c0,8.3-4,14.5-11.9,18.7c-6.3,3.3-14,5-23,5H476V90.1h69.4c9.3,0,16.9,1.4,22.8,4.3
		c7.9,3.8,11.8,9.8,11.8,18.1V150.7z M561.6,150.6v-38.1c0-2.4-2.2-4.2-6.7-5.3c-3-0.8-6.3-1.3-9.9-1.3h-50.5v52.4h50.2
		c3.9,0,7.3-0.5,10.3-1.4C559.4,155.6,561.6,153.5,561.6,150.6z"/>
	<path class="st0" d="M708.8,175.1h-20.9l-15.4-21.9h-57.6l-15,21.9H578L633.6,96c2.7-3.8,6.2-5.7,10.4-5.7c4.3,0,7.8,1.9,10.4,5.7
		L708.8,175.1z M661.2,137.1l-17.8-25.2l-17.4,25.2H661.2z"/>
	<path class="st0" d="M813.4,122.4c0,8.7-4.2,15-12.5,18.9c-6.2,2.9-14.1,4.4-23.9,4.4h-48.9v29.1h-18.6V90.1h68.1
		c8.6,0,16.1,1.3,22.5,3.8c8.8,3.5,13.3,8.9,13.3,16V122.4z M794.9,121.9v-9c0-2.4-2.4-4.2-7.1-5.5c-3.4-1-6.8-1.4-10.1-1.4h-49.7
		v23.7h49.7C789.2,129.7,794.9,127.1,794.9,121.9z"/>
	<path class="st0" d="M912.9,106H875v68.9h-18.5V106h-37.7V90.1h94.1V106z"/>
	<path class="st0" d="M936.8,174.8h-18.6V89.6h18.6V174.8z"/>
	<path class="st0" d="M1069.9,89.7l-55.5,79.1c-2.7,3.8-6.2,5.7-10.5,5.7c-4.3,0-7.7-1.9-10.3-5.7l-54.5-79.1H960l44.6,63.2
		l43.5-63.2H1069.9z"/>
	<path class="st0" d="M1166.5,174.4h-59.6c-8.7,0-16.2-1.5-22.6-4.5c-8.1-4-12.2-9.8-12.2-17.5v-39.8c0-8,4.2-14,12.7-17.9
		c6.5-3,14.2-4.5,23.3-4.5h58.4V106h-57.4c-12.3,0-18.5,2.2-18.5,6.5v12.1h75.9v16h-75.8v11.2c0,4.4,5.6,6.5,16.8,6.5h59V174.4z"/>
</g>
<g>
	<path class="st1" d="M128.3,75.1l-64.9,0c-4.5,0-8.2,3.7-8.2,8.2c0,4.5,3.6,8.2,8.2,8.2l48.5,0L128.3,75.1z"/>
	<path class="st1" d="M130.7,124.1l101,0c4.5,0,8.2-3.7,8.2-8.2c0-4.5-3.7-8.2-8.2-8.2l-84.7,0L130.7,124.1z"/>
	<path class="st1" d="M111.9,173.1l-48.5,0c-4.5,0-8.2,3.7-8.2,8.2c0,4.5,3.6,8.2,8.2,8.2l64.9,0L111.9,173.1z"/>
	<path class="st1" d="M147,156.8l84.7,0c4.5,0,8.2-3.7,8.2-8.2c0-4.5-3.7-8.2-8.2-8.2l-101,0L147,156.8z"/>
	<path class="st2" d="M227.4,83.2c0-4.5-3.7-8.2-8.2-8.2l-8.2,0l0,16.3l8.2,0C223.7,91.4,227.4,87.7,227.4,83.2z"/>
	<path class="st2" d="M227.4,181.3c0-4.5-3.7-8.2-8.2-8.2l-8.2,0l0,16.3l8.2,0C223.7,189.5,227.4,185.8,227.4,181.3z"/>
	<path class="st2" d="M21.6,148.6c0,4.5,3.7,8.2,8.2,8.2l8.2,0l0-16.3l-8.2,0C25.3,140.5,21.6,144.1,21.6,148.6z"/>
	<path class="st2" d="M21.6,116c0,4.5,3.7,8.2,8.2,8.2l8.2,0l0-16.3l-8.2,0C25.3,107.8,21.6,111.4,21.6,116z"/>
	<path class="st2" d="M211,173.1l-56.8,0c-2.8,0-6.6-1.6-8.5-3.5L120.1,144c-1.9-1.9-5.8-3.5-8.5-3.5l-73.6,0l0,16.3l66.8,0
		c2.8,0,6.6,1.6,8.5,3.5l25.6,25.6c1.9,1.9,5.8,3.5,8.5,3.5l63.6,0L211,173.1z"/>
	<path class="st2" d="M104.7,107.8l-66.8,0l0,16.3l73.6,0c2.8,0,6.6-1.6,8.5-3.5L145.7,95c1.9-1.9,5.8-3.5,8.5-3.5l56.8,0l0-16.4
		l-63.6,0c-2.8,0-6.6,1.6-8.5,3.5l-25.6,25.6C111.3,106.2,107.5,107.8,104.7,107.8z"/>
</g>
</svg>
