<?xml version="1.0" encoding="UTF-8" standalone="no"?>
<!-- Generator: Adobe Illustrator 24.3.0, SVG Export Plug-In . SVG Version: 6.00 Build 0)  -->

<svg
   version="1.1"
   id="Layer_1"
   x="0px"
   y="0px"
   viewBox="0 0 1172.5 258"
   style="enable-background:new 0 0 1172.5 258;"
   xml:space="preserve"
   sodipodi:docname="jadaptive-color-light-alt .svg"
   inkscape:version="1.2.2 (b0a8486541, 2022-12-01)"
   xmlns:inkscape="http://www.inkscape.org/namespaces/inkscape"
   xmlns:sodipodi="http://sodipodi.sourceforge.net/DTD/sodipodi-0.dtd"
   xmlns="http://www.w3.org/2000/svg"
   xmlns:svg="http://www.w3.org/2000/svg"><defs
   id="defs49">
	
	
	
	
	
	
	
	
	
</defs><sodipodi:namedview
   id="namedview47"
   pagecolor="#ffffff"
   bordercolor="#666666"
   borderopacity="1.0"
   inkscape:showpageshadow="2"
   inkscape:pageopacity="0"
   inkscape:pagecheckerboard="0"
   inkscape:deskcolor="#d1d1d1"
   showgrid="false"
   inkscape:zoom="1.1462687"
   inkscape:cx="586.6862"
   inkscape:cy="129.55078"
   inkscape:window-width="3440"
   inkscape:window-height="1323"
   inkscape:window-x="3440"
   inkscape:window-y="25"
   inkscape:window-maximized="1"
   inkscape:current-layer="Layer_1" />
<style
   type="text/css"
   id="style2">
	.st0{fill:#FFFFFF;}
	.st1{fill:#36A9E1;}
	.st2{fill:#95C11F;}
</style>
<path
   class="st0"
   d="m 340.6,149.4 c 0,10.3 -4.7,17.4 -14.1,21.2 -6.2,2.5 -15.3,3.8 -27.4,3.8 h -32.5 v -16 h 36.8 c 12.4,0 18.5,-2.9 18.5,-8.8 V 89.7 h 18.7 z"
   id="path4"
   style="fill:#000000;fill-opacity:1" /><path
   class="st0"
   d="m 474,175.1 h -20.9 l -15.4,-21.9 h -57.6 l -15,21.9 H 343.2 L 398.8,96 c 2.7,-3.8 6.2,-5.7 10.4,-5.7 4.3,0 7.8,1.9 10.4,5.7 z m -47.6,-38 -17.8,-25.2 -17.4,25.2 z"
   id="path6"
   style="fill:#000000;fill-opacity:1" /><path
   class="st0"
   d="m 580,150.7 c 0,8.3 -4,14.5 -11.9,18.7 -6.3,3.3 -14,5 -23,5 H 476 V 90.1 h 69.4 c 9.3,0 16.9,1.4 22.8,4.3 7.9,3.8 11.8,9.8 11.8,18.1 z m -18.4,-0.1 v -38.1 c 0,-2.4 -2.2,-4.2 -6.7,-5.3 -3,-0.8 -6.3,-1.3 -9.9,-1.3 h -50.5 v 52.4 h 50.2 c 3.9,0 7.3,-0.5 10.3,-1.4 4.4,-1.3 6.6,-3.4 6.6,-6.3 z"
   id="path8"
   style="fill:#000000;fill-opacity:1" /><path
   class="st0"
   d="m 708.8,175.1 h -20.9 l -15.4,-21.9 h -57.6 l -15,21.9 H 578 L 633.6,96 c 2.7,-3.8 6.2,-5.7 10.4,-5.7 4.3,0 7.8,1.9 10.4,5.7 z m -47.6,-38 -17.8,-25.2 -17.4,25.2 z"
   id="path10"
   style="fill:#000000;fill-opacity:1" /><path
   class="st0"
   d="m 813.4,122.4 c 0,8.7 -4.2,15 -12.5,18.9 -6.2,2.9 -14.1,4.4 -23.9,4.4 h -48.9 v 29.1 H 709.5 V 90.1 h 68.1 c 8.6,0 16.1,1.3 22.5,3.8 8.8,3.5 13.3,8.9 13.3,16 z m -18.5,-0.5 v -9 c 0,-2.4 -2.4,-4.2 -7.1,-5.5 -3.4,-1 -6.8,-1.4 -10.1,-1.4 H 728 v 23.7 h 49.7 c 11.5,0 17.2,-2.6 17.2,-7.8 z"
   id="path12"
   style="fill:#000000;fill-opacity:1" /><path
   class="st0"
   d="M 912.9,106 H 875 v 68.9 H 856.5 V 106 H 818.8 V 90.1 h 94.1 z"
   id="path14"
   style="fill:#000000;fill-opacity:1" /><path
   class="st0"
   d="M 936.8,174.8 H 918.2 V 89.6 h 18.6 z"
   id="path16"
   style="fill:#000000;fill-opacity:1" /><path
   class="st0"
   d="m 1069.9,89.7 -55.5,79.1 c -2.7,3.8 -6.2,5.7 -10.5,5.7 -4.3,0 -7.7,-1.9 -10.3,-5.7 L 939.1,89.7 H 960 l 44.6,63.2 43.5,-63.2 z"
   id="path18"
   style="fill:#000000;fill-opacity:1" /><path
   class="st0"
   d="m 1166.5,174.4 h -59.6 c -8.7,0 -16.2,-1.5 -22.6,-4.5 -8.1,-4 -12.2,-9.8 -12.2,-17.5 v -39.8 c 0,-8 4.2,-14 12.7,-17.9 6.5,-3 14.2,-4.5 23.3,-4.5 h 58.4 V 106 h -57.4 c -12.3,0 -18.5,2.2 -18.5,6.5 v 12.1 h 75.9 v 16 h -75.8 v 11.2 c 0,4.4 5.6,6.5 16.8,6.5 h 59 z"
   id="path20"
   style="fill:#000000;fill-opacity:1" />
<g
   id="g44">
	<path
   class="st1"
   d="M128.3,75.1l-64.9,0c-4.5,0-8.2,3.7-8.2,8.2c0,4.5,3.6,8.2,8.2,8.2l48.5,0L128.3,75.1z"
   id="path24" />
	<path
   class="st1"
   d="M130.7,124.1l101,0c4.5,0,8.2-3.7,8.2-8.2c0-4.5-3.7-8.2-8.2-8.2l-84.7,0L130.7,124.1z"
   id="path26" />
	<path
   class="st1"
   d="M111.9,173.1l-48.5,0c-4.5,0-8.2,3.7-8.2,8.2c0,4.5,3.6,8.2,8.2,8.2l64.9,0L111.9,173.1z"
   id="path28" />
	<path
   class="st1"
   d="M147,156.8l84.7,0c4.5,0,8.2-3.7,8.2-8.2c0-4.5-3.7-8.2-8.2-8.2l-101,0L147,156.8z"
   id="path30" />
	<path
   class="st2"
   d="M227.4,83.2c0-4.5-3.7-8.2-8.2-8.2l-8.2,0l0,16.3l8.2,0C223.7,91.4,227.4,87.7,227.4,83.2z"
   id="path32" />
	<path
   class="st2"
   d="M227.4,181.3c0-4.5-3.7-8.2-8.2-8.2l-8.2,0l0,16.3l8.2,0C223.7,189.5,227.4,185.8,227.4,181.3z"
   id="path34" />
	<path
   class="st2"
   d="M21.6,148.6c0,4.5,3.7,8.2,8.2,8.2l8.2,0l0-16.3l-8.2,0C25.3,140.5,21.6,144.1,21.6,148.6z"
   id="path36" />
	<path
   class="st2"
   d="M21.6,116c0,4.5,3.7,8.2,8.2,8.2l8.2,0l0-16.3l-8.2,0C25.3,107.8,21.6,111.4,21.6,116z"
   id="path38" />
	<path
   class="st2"
   d="M211,173.1l-56.8,0c-2.8,0-6.6-1.6-8.5-3.5L120.1,144c-1.9-1.9-5.8-3.5-8.5-3.5l-73.6,0l0,16.3l66.8,0   c2.8,0,6.6,1.6,8.5,3.5l25.6,25.6c1.9,1.9,5.8,3.5,8.5,3.5l63.6,0L211,173.1z"
   id="path40" />
	<path
   class="st2"
   d="M104.7,107.8l-66.8,0l0,16.3l73.6,0c2.8,0,6.6-1.6,8.5-3.5L145.7,95c1.9-1.9,5.8-3.5,8.5-3.5l56.8,0l0-16.4   l-63.6,0c-2.8,0-6.6,1.6-8.5,3.5l-25.6,25.6C111.3,106.2,107.5,107.8,104.7,107.8z"
   id="path42" />
</g>
</svg>
