<?xml version="1.0" encoding="UTF-8" standalone="no"?>
<!-- Generator: Adobe Illustrator 24.3.0, SVG Export Plug-In . SVG Version: 6.00 Build 0)  -->

<svg
   version="1.1"
   id="Layer_1"
   x="0px"
   y="0px"
   viewBox="0 0 512 512"
   style="enable-background:new 0 0 512 512;"
   xml:space="preserve"
   sodipodi:docname="jadaptive-color-graphic-circled-black.svg"
   inkscape:version="1.2.2 (b0a8486541, 2022-12-01)"
   xmlns:inkscape="http://www.inkscape.org/namespaces/inkscape"
   xmlns:sodipodi="http://sodipodi.sourceforge.net/DTD/sodipodi-0.dtd"
   xmlns="http://www.w3.org/2000/svg"
   xmlns:svg="http://www.w3.org/2000/svg"><defs
   id="defs29" /><sodipodi:namedview
   id="namedview27"
   pagecolor="#ffffff"
   bordercolor="#666666"
   borderopacity="1.0"
   inkscape:showpageshadow="2"
   inkscape:pageopacity="0.0"
   inkscape:pagecheckerboard="0"
   inkscape:deskcolor="#d1d1d1"
   showgrid="false"
   inkscape:zoom="1.7578125"
   inkscape:cx="252.58667"
   inkscape:cy="210.48889"
   inkscape:window-width="1502"
   inkscape:window-height="1098"
   inkscape:window-x="1612"
   inkscape:window-y="158"
   inkscape:window-maximized="0"
   inkscape:current-layer="Layer_1" />
<style
   type="text/css"
   id="style2">
	.st0{fill:#36A9E1;}
	.st1{fill:#95C11F;}
</style>
<ellipse
   style="opacity:0.9;fill:#000000;stroke:#36a9e1;stroke-width:32;stroke-dasharray:none;stroke-opacity:1"
   id="path187"
   cx="257.11002"
   cy="255.9575"
   rx="237.68233"
   ry="239.15511" /><g
   id="g24"
   transform="matrix(0.83866545,0,0,0.83866545,41.309711,43.301644)"
   style="stroke-width:1.19237">
	<path
   class="st0"
   d="M 250.4,126.9 H 104 c -10.2,0 -18.4,8.3 -18.4,18.5 0,10.2 8.2,18.4 18.4,18.4 h 109.5 z"
   id="path4"
   style="stroke-width:1.19237" />
	<path
   class="st0"
   d="m 255.8,237.6 h 228.1 c 10.2,0 18.4,-8.3 18.4,-18.4 0,-10.2 -8.3,-18.4 -18.4,-18.4 H 292.7 Z"
   id="path6"
   style="stroke-width:1.19237" />
	<path
   class="st0"
   d="M 213.5,348.2 H 104 c -10.2,0 -18.4,8.3 -18.4,18.5 0,10.2 8.2,18.4 18.4,18.4 h 146.4 z"
   id="path8"
   style="stroke-width:1.19237" />
	<path
   class="st0"
   d="M 292.8,311.3 H 484 c 10.2,0 18.4,-8.3 18.4,-18.4 0,-10.2 -8.3,-18.4 -18.4,-18.4 H 256 Z"
   id="path10"
   style="stroke-width:1.19237" />
	<path
   class="st1"
   d="m 474,145.3 c 0,-10.2 -8.3,-18.4 -18.5,-18.4 h -18.4 v 36.9 h 18.4 c 10.3,0 18.5,-8.3 18.5,-18.5 z"
   id="path12"
   style="stroke-width:1.19237" />
	<path
   class="st1"
   d="m 474.1,366.6 c 0,-10.2 -8.3,-18.4 -18.5,-18.4 h -18.4 v 36.9 h 18.4 c 10.2,0 18.5,-8.3 18.5,-18.5 z"
   id="path14"
   style="stroke-width:1.19237" />
	<path
   class="st1"
   d="m 9.7,292.9 c 0,10.2 8.3,18.4 18.5,18.4 H 46.6 V 274.4 H 28.2 c -10.3,0.1 -18.5,8.4 -18.5,18.5 z"
   id="path16"
   style="stroke-width:1.19237" />
	<path
   class="st1"
   d="m 9.7,219.2 c 0,10.2 8.3,18.4 18.5,18.4 H 46.6 V 200.7 H 28.2 c -10.3,0 -18.5,8.3 -18.5,18.5 z"
   id="path18"
   style="stroke-width:1.19237" />
	<path
   class="st1"
   d="M 437.2,348.2 H 309 c -6.2,0 -14.9,-3.6 -19.3,-8 l -57.8,-57.8 c -4.4,-4.4 -13.1,-8 -19.3,-8 h -166 v 36.9 h 150.7 c 6.2,0 14.9,3.6 19.3,8 l 57.8,57.8 c 4.4,4.4 13.1,8 19.3,8 h 143.5 z"
   id="path20"
   style="stroke-width:1.19237" />
	<path
   class="st1"
   d="M 197.3,200.7 H 46.6 v 36.9 h 166 c 6.2,0 14.9,-3.6 19.3,-8 l 57.8,-57.8 c 4.4,-4.4 13.1,-8 19.3,-8 H 437.2 V 126.9 H 293.7 c -6.2,0 -14.9,3.6 -19.3,8 l -57.8,57.8 c -4.4,4.4 -13.1,8 -19.3,8 z"
   id="path22"
   style="stroke-width:1.19237" />
</g>
</svg>
