<?xml version="1.0" encoding="UTF-8" standalone="no"?>
<!-- Generator: Adobe Illustrator 24.3.0, SVG Export Plug-In . SVG Version: 6.00 Build 0)  -->

<svg
   version="1.1"
   id="Layer_1"
   x="0px"
   y="0px"
   viewBox="0 0 512 512"
   style="enable-background:new 0 0 512 512;"
   xml:space="preserve"
   sodipodi:docname="jadaptive-mono-graphic-circled-white.svg"
   inkscape:version="1.2.2 (b0a8486541, 2022-12-01)"
   xmlns:inkscape="http://www.inkscape.org/namespaces/inkscape"
   xmlns:sodipodi="http://sodipodi.sourceforge.net/DTD/sodipodi-0.dtd"
   xmlns="http://www.w3.org/2000/svg"
   xmlns:svg="http://www.w3.org/2000/svg"><defs
   id="defs29">
	
	
	
	
	
	
	
	
	
	
</defs><sodipodi:namedview
   id="namedview27"
   pagecolor="#000000"
   bordercolor="#666666"
   borderopacity="1.0"
   inkscape:showpageshadow="2"
   inkscape:pageopacity="0"
   inkscape:pagecheckerboard="0"
   inkscape:deskcolor="#d1d1d1"
   showgrid="false"
   inkscape:zoom="1.7578125"
   inkscape:cx="77.084444"
   inkscape:cy="256.28444"
   inkscape:window-width="3440"
   inkscape:window-height="1323"
   inkscape:window-x="3440"
   inkscape:window-y="25"
   inkscape:window-maximized="1"
   inkscape:current-layer="Layer_1" />
<style
   type="text/css"
   id="style2">
	.st0{fill:#36A9E1;}
	.st1{fill:#95C11F;}
</style>
<ellipse
   style="opacity:0.9;fill:none;stroke:#ffffff;stroke-width:32;stroke-dasharray:none;stroke-opacity:1"
   id="path187"
   cx="257.11002"
   cy="255.9575"
   rx="234.46275"
   ry="235.91684" /><path
   class="st0"
   d="M 251.31154,149.72829 H 128.53092 c -8.55439,0 -15.43145,6.96092 -15.43145,15.51531 0,8.55439 6.87706,15.43144 15.43145,15.43144 h 91.83386 z"
   id="path4"
   style="stroke-width:1;fill:#ffffff;fill-opacity:1" /><path
   class="st0"
   d="m 255.84033,242.56855 h 191.29959 c 8.55439,0 15.43145,-6.96092 15.43145,-15.43144 0,-8.55439 -6.96093,-15.43144 -15.43145,-15.43144 H 286.78709 Z"
   id="path6"
   style="stroke-width:1;fill:#ffffff;fill-opacity:1" /><path
   class="st0"
   d="m 220.36478,335.32495 h -91.83386 c -8.55439,0 -15.43145,6.96093 -15.43145,15.51531 0,8.55439 6.87706,15.43145 15.43145,15.43145 h 122.78062 z"
   id="path8"
   style="stroke-width:1;fill:#ffffff;fill-opacity:1" /><path
   class="st0"
   d="m 286.87095,304.3782 h 160.35284 c 8.55439,0 15.43144,-6.96092 15.43144,-15.43145 0,-8.55438 -6.96092,-15.43144 -15.43144,-15.43144 H 256.00807 Z"
   id="path10"
   style="stroke-width:1;fill:#ffffff;fill-opacity:1" /><path
   class="st1"
   d="m 438.83713,165.15973 c 0,-8.55438 -6.96092,-15.43144 -15.51531,-15.43144 h -15.43144 v 30.94675 h 15.43144 c 8.63826,0 15.51531,-6.96092 15.51531,-15.51531 z"
   id="path12"
   style="stroke-width:1;fill:#ffffff;fill-opacity:0.5" /><path
   class="st1"
   d="m 438.921,350.7564 c 0,-8.55439 -6.96092,-15.43145 -15.51531,-15.43145 h -15.43144 v 30.94676 h 15.43144 c 8.55439,0 15.51531,-6.96092 15.51531,-15.51531 z"
   id="path14"
   style="stroke-width:1;fill:#ffffff;fill-opacity:0.50035083" /><path
   class="st1"
   d="m 49.444766,288.94675 c 0,8.55439 6.960923,15.43145 15.515311,15.43145 H 80.391521 V 273.43144 H 64.960077 c -8.638254,0.0839 -15.515311,7.04479 -15.515311,15.51531 z"
   id="path16"
   style="stroke-width:1;fill:#ffffff;fill-opacity:0.50035083" /><path
   class="st1"
   d="m 49.444766,227.13711 c 0,8.55439 6.960923,15.43144 15.515311,15.43144 H 80.391521 V 211.6218 H 64.960077 c -8.638254,0 -15.515311,6.96092 -15.515311,15.51531 z"
   id="path18"
   style="stroke-width:1;fill:#ffffff;fill-opacity:0.5" /><path
   class="st1"
   d="M 407.97425,335.32495 H 300.45734 c -5.19973,0 -12.49612,-3.01919 -16.18625,-6.70932 l -48.47486,-48.47486 c -3.69013,-3.69013 -10.98652,-6.70933 -16.18624,-6.70933 H 80.391521 V 304.3782 H 206.7784 c 5.19973,0 12.49612,3.01919 16.18625,6.70932 l 48.47486,48.47487 c 3.69013,3.69012 10.98652,6.70932 16.18624,6.70932 h 120.3485 z"
   id="path20"
   style="stroke-width:1;fill:#ffffff;fill-opacity:0.50035083" /><path
   class="st1"
   d="M 206.7784,211.6218 H 80.391521 v 30.94675 H 219.60999 c 5.19972,0 12.49611,-3.01919 16.18624,-6.70932 l 48.47486,-48.47486 c 3.69013,-3.69013 10.98652,-6.70933 16.18625,-6.70933 h 107.51691 v -30.94675 h -120.3485 c -5.19972,0 -12.49611,3.0192 -16.18624,6.70932 l -48.47486,48.47487 c -3.69013,3.69012 -10.98652,6.70932 -16.18625,6.70932 z"
   id="path22"
   style="stroke-width:1;fill:#ffffff;fill-opacity:0.5" />
</svg>
